<svg xmlns="http://www.w3.org/2000/svg" viewBox="0 0 260 180" role="img" aria-labelledby="title desc">
<title id="title">Homes By Binoy HB monogram</title>
<desc id="desc">Elegant gold HB monogram with a subtle roof line and four window panes.</desc>
<defs>
  <linearGradient id="gold" x1="0" y1="0" x2="1" y2="1">
    <stop offset="0" stop-color="#8E6416"/>
    <stop offset=".48" stop-color="#D0A13A"/>
    <stop offset="1" stop-color="#A87517"/>
  </linearGradient>
</defs>
<path d="M32 25h22v52h70V25h22v130h-22V99H54v56H32z" fill="url(#gold)"/>
<path d="M132 25h42c34 0 52 13 52 34 0 15-9 26-26 31 23 5 34 16 34 31 0 23-20 34-59 34h-43V25zm22 19v38h20c20 0 29-6 29-19 0-13-9-19-29-19h-20zm0 56v36h23c22 0 33-6 33-18 0-12-11-18-33-18h-23z" fill="url(#gold)"/>
<path d="M48 94L129 45l82 49" fill="none" stroke="url(#gold)" stroke-width="5" stroke-linecap="round" stroke-linejoin="round"/>
<g fill="#B98520">
  <rect x="119" y="88" width="8" height="8" rx="1"/>
  <rect x="131" y="88" width="8" height="8" rx="1"/>
  <rect x="119" y="100" width="8" height="8" rx="1"/>
  <rect x="131" y="100" width="8" height="8" rx="1"/>
</g>
</svg>